<svg viewBox="0 0 157 168" fill="none" xmlns="http://www.w3.org/2000/svg">
<g clip-path="url(#clip0)">
<path opacity="0.0263" d="M20.1006 166.65V167.44H22.4406C68.9706 167.44 114.781 138.72 155.791 83.8202C114.781 28.9302 68.9706 0.200195 22.4406 0.200195H20.1106V0.990173C9.50064 0.990173 0.890634 38.0702 0.890634 83.8202C0.880634 129.56 9.49063 166.65 20.1006 166.65Z" fill="#FCFCFC"/>
<path opacity="0.0526" d="M19.9899 166.44V167.23H22.3099C68.5699 167.23 114.12 138.58 154.89 83.8202C114.12 29.0702 68.5699 0.410156 22.3099 0.410156H19.9899V1.20016C9.4399 1.20016 0.879883 38.1902 0.879883 83.8202C0.879883 129.45 9.4399 166.44 19.9899 166.44Z" fill="#F8F9F9"/>
<path opacity="0.0789" d="M19.8801 166.24V167.03H22.1901C68.1801 167.03 113.46 138.45 153.99 83.8203C113.46 29.2003 68.1801 0.610352 22.1801 0.610352H19.8701V1.40033C9.38012 1.40033 0.870117 38.3003 0.870117 83.8203C0.880117 129.34 9.39013 166.24 19.8801 166.24Z" fill="#F5F5F5"/>
<path opacity="0.1053" d="M19.7699 166.04V166.82H22.0599C67.7799 166.82 112.79 138.31 153.09 83.8203C112.79 29.3303 67.7799 0.820312 22.0599 0.820312H19.7699V1.60031C9.3399 1.60031 0.879883 38.4103 0.879883 83.8203C0.879883 129.23 9.3399 166.04 19.7699 166.04Z" fill="#F2F2F2"/>
<path opacity="0.1316" d="M19.6599 165.84V166.62H21.9399C67.3899 166.62 112.14 138.18 152.19 83.8195C112.13 29.4695 67.3899 1.01953 21.9299 1.01953H19.6499V1.79953C9.2799 1.79953 0.879883 38.5195 0.879883 83.8095C0.879883 129.12 9.28988 165.84 19.6599 165.84Z" fill="#EFEFEF"/>
<path opacity="0.1579" d="M19.5506 165.63V166.41H21.8206C67.0006 166.41 111.481 138.04 151.301 83.8205C111.481 29.6005 67.0006 1.23047 21.8206 1.23047H19.5506V2.01047C9.24064 2.01047 0.890634 38.6405 0.890634 83.8205C0.880634 129 9.24064 165.63 19.5506 165.63Z" fill="#EBECEC"/>
<path opacity="0.1842" d="M19.4301 165.43V166.21H21.6801C66.5901 166.21 110.8 137.91 150.38 83.8197C110.8 29.7397 66.5901 1.42969 21.6701 1.42969H19.4201V2.20969C9.18014 2.20969 0.870117 38.7497 0.870117 83.8197C0.880117 128.89 9.19015 165.43 19.4301 165.43Z" fill="#E8E8E9"/>
<path opacity="0.2105" d="M19.3199 165.23V166.01H21.5599C66.1999 166.01 110.15 137.78 149.49 83.8304C110.15 29.8804 66.1999 1.65039 21.5599 1.65039H19.3199V2.43039C9.13988 2.43039 0.879883 38.8804 0.879883 83.8304C0.879883 128.78 9.13988 165.23 19.3199 165.23Z" fill="#E5E5E6"/>
<path opacity="0.2368" d="M19.2099 165.02V165.8H21.4399C65.8099 165.8 109.49 137.64 148.59 83.8199C109.49 30.0099 65.8099 1.83984 21.4299 1.83984H19.2099V2.60986C9.0899 2.60986 0.879883 38.9598 0.879883 83.8098C0.879883 128.67 9.0899 165.02 19.2099 165.02Z" fill="#E1E2E2"/>
<path opacity="0.2632" d="M19.0999 164.82V165.59H21.3099C65.4099 165.59 108.82 137.5 147.69 83.8198C108.82 30.1398 65.4099 2.0498 21.3099 2.0498H19.0999V2.81979C9.03988 2.81979 0.879883 39.0798 0.879883 83.8198C0.879883 128.56 9.03988 164.82 19.0999 164.82Z" fill="#DEDFDF"/>
<path opacity="0.2895" d="M18.9899 164.62V165.39H21.1899C65.0199 165.39 108.17 137.37 146.79 83.82C108.16 30.28 65.0099 2.25 21.1799 2.25H18.9799V3.02002C8.97989 3.02002 0.879883 39.19 0.879883 83.81C0.879883 128.44 8.9899 164.62 18.9899 164.62Z" fill="#DBDBDC"/>
<path opacity="0.3158" d="M18.8804 164.41V165.18H21.0704C64.6304 165.18 107.51 137.23 145.9 83.82C107.51 30.41 64.6304 2.45996 21.0704 2.45996H18.8904V3.22998C8.95042 3.22998 0.900428 39.31 0.900428 83.82C0.880428 128.33 8.94041 164.41 18.8804 164.41Z" fill="#D8D8D9"/>
<path opacity="0.3421" d="M18.7601 164.21V164.98H20.9301C64.2201 164.98 106.83 137.1 144.98 83.8202C106.83 30.5502 64.2101 2.66016 20.9201 2.66016H18.7501V3.43015C8.88012 3.43015 0.870117 39.4202 0.870117 83.8202C0.880117 128.22 8.89013 164.21 18.7601 164.21Z" fill="#D4D5D6"/>
<path opacity="0.3684" d="M18.6499 164.01V164.78H20.8099C63.8299 164.78 106.18 136.97 144.09 83.8299C106.18 30.6899 63.8299 2.87988 20.8099 2.87988H18.6499V3.63989C8.8399 3.63989 0.879883 39.5399 0.879883 83.8299C0.879883 128.11 8.8399 164.01 18.6499 164.01Z" fill="#D1D2D2"/>
<path opacity="0.3947" d="M18.5401 163.8V164.56H20.6801C63.4301 164.56 105.51 136.82 143.18 83.8096C105.51 30.7996 63.4201 3.05957 20.6701 3.05957H18.5301V3.81958C8.78012 3.81958 0.870117 39.6296 0.870117 83.7996C0.880117 127.99 8.79013 163.8 18.5401 163.8Z" fill="#CECECF"/>
<path opacity="0.4211" d="M18.4299 163.6V164.36H20.5599C63.0399 164.36 104.85 136.69 142.29 83.8203C104.85 30.9503 63.0399 3.28027 20.5599 3.28027H18.4299V4.04028C8.7399 4.04028 0.879883 39.7603 0.879883 83.8203C0.879883 127.88 8.7399 163.6 18.4299 163.6Z" fill="#CACBCC"/>
<path opacity="0.4474" d="M18.3199 163.4V164.16H20.4399C62.6499 164.16 104.2 136.56 141.39 83.8203C104.19 31.0802 62.6399 3.49023 20.4299 3.49023H18.3099V4.25024C8.67988 4.25024 0.879883 39.8803 0.879883 83.8303C0.879883 127.77 8.68989 163.4 18.3199 163.4Z" fill="#C7C8C9"/>
<path opacity="0.4737" d="M18.2106 163.2V163.96H20.3106C62.2506 163.96 103.531 136.43 140.491 83.8302C103.531 31.2302 62.2506 3.7002 20.3106 3.7002H18.2106V4.46017C8.64064 4.46017 0.890635 40.0002 0.890635 83.8302C0.880635 127.66 8.64064 163.2 18.2106 163.2Z" fill="#C4C5C6"/>
<path opacity="0.5" d="M18.0899 162.99V163.75H20.1799C61.8499 163.75 102.86 136.29 139.59 83.8204C102.87 31.3504 61.8499 3.90039 20.1799 3.90039H18.0899V4.65039C8.58987 4.65039 0.879883 40.1004 0.879883 83.8204C0.879883 127.55 8.58987 162.99 18.0899 162.99Z" fill="#C1C2C3"/>
<path opacity="0.5263" d="M17.9799 162.79V163.54H20.0599C61.4599 163.54 102.21 136.15 138.69 83.8196C102.21 31.4896 61.4599 4.09961 20.0599 4.09961H17.9799V4.84961C8.53989 4.84961 0.879883 40.1996 0.879883 83.8196C0.879883 127.43 8.53989 162.79 17.9799 162.79Z" fill="#BDBEBF"/>
<path opacity="0.5526" d="M17.8699 162.59V163.34H19.9299C61.0599 163.34 101.54 136.02 137.79 83.8196C101.55 31.6196 61.0599 4.30957 19.9299 4.30957H17.8699V5.05957C8.48987 5.05957 0.879883 40.3196 0.879883 83.8196C0.879883 127.32 8.48987 162.59 17.8699 162.59Z" fill="#BABBBC"/>
<path opacity="0.5789" d="M17.7599 162.38V163.13H19.8099C60.6599 163.13 100.89 135.89 136.89 83.8198C100.88 31.7598 60.6599 4.50977 19.8099 4.50977H17.7599V5.25977C8.43989 5.25977 0.879883 40.4298 0.879883 83.8198C0.879883 127.21 8.43989 162.38 17.7599 162.38Z" fill="#B7B8B9"/>
<path opacity="0.6053" d="M17.6506 162.18V162.93H19.6906C60.2706 162.93 100.231 135.76 136.001 83.8197C100.231 31.8897 60.2806 4.71973 19.6906 4.71973H17.6506V5.46973C8.39064 5.46973 0.890635 40.5497 0.890635 83.8297C0.880635 127.1 8.39064 162.18 17.6506 162.18Z" fill="#B3B5B6"/>
<path opacity="0.6316" d="M17.5406 161.98V162.73H19.5606C59.8706 162.73 99.5607 135.63 135.091 83.8297C99.5607 32.0397 59.8706 4.92969 19.5606 4.92969H17.5406V5.66971C8.34063 5.66971 0.890635 40.6597 0.890635 83.8297C0.880635 126.99 8.34063 161.98 17.5406 161.98Z" fill="#B0B1B3"/>
<path opacity="0.6579" d="M17.4199 161.77V162.51H19.4299C59.4699 162.51 98.8999 135.48 134.19 83.8101C98.8999 32.1501 59.4799 5.12012 19.4299 5.12012H17.4199V5.86014C8.28989 5.86014 0.879883 40.7601 0.879883 83.8101C0.879883 126.87 8.28989 161.77 17.4199 161.77Z" fill="#ADAEAF"/>
<path opacity="0.6842" d="M17.3106 161.57V162.31H19.3106C59.0806 162.31 98.2407 135.35 133.291 83.8201C98.2407 32.3001 59.0806 5.33008 19.3106 5.33008H17.3206V6.07007C8.25063 6.07007 0.890635 40.8801 0.890635 83.8201C0.880635 126.76 8.24062 161.57 17.3106 161.57Z" fill="#A9ABAC"/>
<path opacity="0.7105" d="M17.1999 161.37V162.11H19.1799C58.6799 162.11 97.5699 135.22 132.39 83.82C97.5799 32.43 58.6899 5.54004 19.1799 5.54004H17.1999V6.28003C8.18989 6.28003 0.879883 41 0.879883 83.83C0.879883 126.65 8.18989 161.37 17.1999 161.37Z" fill="#A6A8A9"/>
<path opacity="0.7368" d="M17.0899 161.16V161.9H19.0599C58.2899 161.9 96.9199 135.08 131.49 83.8203C96.9099 32.5603 58.2899 5.74023 19.0599 5.74023H17.0899V6.48026C8.13987 6.48026 0.879883 41.1103 0.879883 83.8203C0.879883 126.54 8.13987 161.16 17.0899 161.16Z" fill="#A3A4A6"/>
<path opacity="0.7632" d="M16.9806 160.96V161.7H18.9306C57.8906 161.7 96.2507 134.95 130.591 83.8202C96.2507 32.7002 57.9006 5.9502 18.9306 5.9502H16.9806V6.68018C8.09063 6.68018 0.890635 41.2202 0.890635 83.8202C0.880635 126.42 8.09063 160.96 16.9806 160.96Z" fill="#A0A1A3"/>
<path opacity="0.7895" d="M16.8599 160.76V161.49H18.7999C57.4899 161.49 95.5799 134.81 129.68 83.8204C95.5799 32.8304 57.4899 6.15039 18.7999 6.15039H16.8599V6.8804C8.02989 6.8804 0.879883 41.3304 0.879883 83.8204C0.879883 126.31 8.03989 160.76 16.8599 160.76Z" fill="#9C9E9F"/>
<path opacity="0.8158" d="M16.7499 160.56V161.29H18.6799C57.0999 161.29 94.9299 134.68 128.79 83.8203C94.9299 32.9703 57.1099 6.36035 18.6799 6.36035H16.7499V7.09033C7.98988 7.09033 0.879883 41.4403 0.879883 83.8203C0.879883 126.2 7.98988 160.56 16.7499 160.56Z" fill="#999B9C"/>
<path opacity="0.8421" d="M16.6399 160.35V161.08H18.5499C56.6999 161.08 94.2599 134.54 127.88 83.8196C94.2599 33.0996 56.6999 6.55957 18.5499 6.55957H16.6399V7.28958C7.93989 7.28958 0.879883 41.5496 0.879883 83.8196C0.879883 126.09 7.93989 160.35 16.6399 160.35Z" fill="#969799"/>
<path opacity="0.8684" d="M16.5299 160.15V160.88H18.4299C56.3099 160.88 93.5999 134.41 126.99 83.8195C93.6099 33.2395 56.3099 6.76953 18.4299 6.76953H16.5299V7.49951C7.88988 7.49951 0.879883 41.6695 0.879883 83.8295C0.879883 125.98 7.88988 160.15 16.5299 160.15Z" fill="#929496"/>
<path opacity="0.8947" d="M16.4206 159.95V160.68H18.3106C55.9206 160.68 92.9506 134.28 126.091 83.8305C92.9406 33.3805 55.9206 6.98047 18.3106 6.98047H16.4206V7.70047C7.84063 7.70047 0.890636 41.7805 0.890636 83.8205C0.880636 125.86 7.84063 159.95 16.4206 159.95Z" fill="#8F9193"/>
<path opacity="0.9211" d="M16.3106 159.74V160.46H18.1806C55.5206 160.46 92.2806 134.13 125.191 83.8099C92.2806 33.4999 55.5206 7.16992 18.1806 7.16992H16.3106V7.88992C7.79062 7.88992 0.890636 41.8799 0.890636 83.8099C0.880636 125.75 7.79062 159.74 16.3106 159.74Z" fill="#8C8E90"/>
<path opacity="0.9474" d="M16.1899 159.54V160.26H18.0499C55.1199 160.26 91.6099 134 124.28 83.8199C91.6099 33.6399 55.1199 7.37988 18.0499 7.37988H16.1899V8.09988C7.72988 8.09988 0.879883 41.9999 0.879883 83.8199C0.879883 125.64 7.73988 159.54 16.1899 159.54Z" fill="#898A8C"/>
<path opacity="0.9737" d="M16.0799 159.34V160.06H17.9299C54.7299 160.06 90.9599 133.87 123.39 83.8199C90.9599 33.7799 54.7299 7.58984 17.9299 7.58984H16.0799V8.30984C7.68989 8.30984 0.879883 42.1199 0.879883 83.8299C0.879883 125.53 7.68989 159.34 16.0799 159.34Z" fill="#858789"/>
<path d="M15.9699 159.13V159.85H17.7999C54.3299 159.85 90.2899 133.73 122.48 83.82C90.2899 33.91 54.3299 7.79004 17.7999 7.79004H15.9699V8.51004C7.63988 8.51004 0.879883 42.23 0.879883 83.82C0.879883 125.42 7.63988 159.13 15.9699 159.13Z" fill="#828486"/>
<path d="M15.53 157.16V157.86H17.42C55.02 157.86 92.04 132.42 125.17 83.8203C92.04 35.2103 55.02 9.78027 17.42 9.78027H15.53V10.4803C6.95 10.4803 0 43.3203 0 83.8203C0 124.33 6.95 157.16 15.53 157.16Z" fill="url(#paint0_linear)"/>
<path d="M18.0999 153.16V153.82H19.8799C55.4199 153.82 90.4199 129.77 121.74 83.8201C90.4199 37.8701 55.4199 13.8301 19.8799 13.8301H18.0999V14.4901C9.98991 14.4901 3.41992 45.5301 3.41992 83.8201C3.41992 122.11 9.99991 153.16 18.0999 153.16Z" fill="url(#paint1_linear)"/>
<path d="M73.4 95.8505C73.6 97.2105 73.17 97.7705 72.74 97.7705C72.27 97.7705 71.68 97.2205 70.99 96.1405C70.3 95.0705 70.05 93.8405 70.39 93.2205C70.61 92.8105 71.08 92.6305 71.68 92.8505C72.83 93.2805 73.28 95.0405 73.4 95.8505Z" fill="white"/>
<path d="M67.0503 98.8004C68.4303 99.9604 68.8502 101.35 68.1202 102.32C67.7102 102.86 67.0603 103.15 66.2703 103.15C65.5003 103.15 64.7102 102.86 64.1602 102.39C62.9102 101.3 62.5403 99.5204 63.3603 98.5104C63.6803 98.1204 64.2002 97.9004 64.8202 97.9004C65.5802 97.9104 66.3703 98.2304 67.0503 98.8004Z" fill="white"/>
<path d="M64.7499 110.04C70.6799 110.04 77.1099 112.07 84.2399 118.38C84.9499 119.01 85.8999 118.23 85.2799 117.44C78.2799 108.6 71.8099 106.92 65.3499 105.5C57.4499 103.76 53.3899 99.32 50.5599 94.44C49.9999 93.47 49.7399 93.64 49.6899 94.89C49.6299 96.42 49.7299 98.44 50.0699 100.42C49.7499 100.43 49.4299 100.43 49.1099 100.43C37.8099 100.43 28.6499 91.27 28.6499 79.97C28.6499 68.67 37.8099 59.51 49.1099 59.51C60.4099 59.51 69.5699 68.67 69.5699 79.97C69.5699 80.77 69.5299 81.57 69.4399 82.35C67.9499 82.08 65.0099 82.05 62.9399 82.23C62.1599 82.3 62.2699 82.66 62.8599 82.76C69.6199 83.98 74.2699 88.17 75.3299 95.78C75.3499 95.95 75.5799 96.01 75.6699 95.86C78.4499 91.22 80.0499 85.78 80.0499 79.98C80.0499 62.89 66.1999 49.04 49.1099 49.04C32.0199 49.04 18.1699 62.89 18.1699 79.98C18.1699 97.07 32.0199 110.93 49.1099 110.93C53.6499 110.92 58.1399 110.04 64.7499 110.04Z" fill="white"/>
</g>
<defs>
<linearGradient id="paint0_linear" x1="67.1713" y1="144.905" x2="56.8067" y2="22.9214" gradientUnits="userSpaceOnUse">
<stop stop-color="#5D5D5D"/>
<stop offset="0.3068" stop-color="#565555"/>
<stop offset="0.4355" stop-color="#535252"/>
<stop offset="0.532" stop-color="#494949"/>
<stop offset="0.5771" stop-color="#424242"/>
<stop offset="1" stop-color="#333333"/>
</linearGradient>
<linearGradient id="paint1_linear" x1="62.5852" y1="153.82" x2="62.5852" y2="13.8256" gradientUnits="userSpaceOnUse">
<stop stop-color="#5F6280"/>
<stop offset="0.4229" stop-color="#6A6A6B"/>
<stop offset="0.5173" stop-color="#706F70"/>
<stop offset="0.6932" stop-color="#737172"/>
<stop offset="1" stop-color="#808080"/>
</linearGradient>
<clipPath id="clip0">
<rect width="156.7" height="167.64" fill="white"/>
</clipPath>
</defs>
</svg>
