<svg viewBox="0 0 793 793" fill="none" xmlns="http://www.w3.org/2000/svg">
<g clip-path="url(#clip0)">
<path d="M404.28 393.38L760.22 483.83C775.8 422.76 775.95 356.9 757.29 291.96L404.28 393.38Z" fill="white" stroke="#FF8C00" stroke-miterlimit="10"/>
<path d="M404.28 393.38L315.64 749.77C376.2 764.89 441.4 764.87 505.71 746.39L404.28 393.38Z" fill="#FF8C00" stroke="#FF8C00" stroke-miterlimit="10"/>
<path d="M404.28 393.38L149.04 657.43C195.48 702.23 253.05 734.14 315.64 749.77L404.28 393.38Z" fill="white" stroke="#FF8C00" stroke-miterlimit="10"/>
<path d="M404.281 393.38L51.2705 494.81C69.7105 558.99 104.201 614.17 149.041 657.43L404.281 393.38Z" fill="#FF8C00" stroke="#FF8C00" stroke-miterlimit="10"/>
<path d="M48.3405 302.94C32.7605 364.01 32.6105 429.87 51.2705 494.81L404.281 393.38L48.3405 302.94Z" fill="white" stroke="#FF8C00" stroke-miterlimit="10"/>
<path d="M404.28 393.38L505.71 746.39C570.11 727.89 625.45 693.22 668.78 648.16L404.28 393.38Z" fill="white" stroke="#FF8C00" stroke-miterlimit="10"/>
<path d="M760.22 483.83L404.28 393.38L668.78 648.16C712.91 602.25 744.48 545.52 760.22 483.83Z" fill="#FF8C00" stroke="#FF8C00" stroke-miterlimit="10"/>
<path d="M404.28 393.38L139.78 138.6C95.6401 184.51 64.0701 241.24 48.3301 302.93L404.28 393.38Z" fill="#FF8C00" stroke="#FF8C00" stroke-miterlimit="10"/>
<path d="M757.29 291.96C738.85 227.78 704.36 172.6 659.52 129.34L404.28 393.38L757.29 291.96Z" fill="#FF8C00" stroke="#FF8C00" stroke-miterlimit="10"/>
<path d="M492.92 36.9902C432.36 21.8702 367.16 21.8902 302.85 40.3702L404.28 393.38L492.92 36.9902Z" fill="#FF8C00" stroke="#FF8C00" stroke-miterlimit="10"/>
<path d="M404.28 393.38L659.52 129.33C613.08 84.5302 555.52 52.6202 492.92 36.9902L404.28 393.38Z" fill="white" stroke="#FF8C00" stroke-miterlimit="10"/>
<path d="M404.28 393.38L302.85 40.3701C238.45 58.8701 183.11 93.5401 139.78 138.6L404.28 393.38Z" fill="white" stroke="#FF8C00" stroke-miterlimit="10"/>
<path opacity="0.0278" d="M405.95 758.85C211.04 758.85 53.0402 600.81 53.0402 405.86C53.0402 210.91 211.04 52.8703 405.95 52.8703C600.86 52.8703 758.86 210.91 758.86 405.86C758.86 600.81 600.86 758.85 405.95 758.85ZM405.95 19.5703C192.65 19.5703 19.7402 192.52 19.7402 405.87C19.7402 619.21 192.65 792.17 405.95 792.17C619.25 792.17 792.16 619.22 792.16 405.87C792.16 192.52 619.25 19.5703 405.95 19.5703Z" fill="#FAFAFA"/>
<path opacity="0.0556" d="M405.67 758.83C210.62 758.83 52.4997 600.68 52.4997 405.59C52.4997 210.5 210.62 52.3498 405.67 52.3498C600.72 52.3498 758.84 210.5 758.84 405.59C758.84 600.68 600.72 758.83 405.67 758.83ZM405.67 19.0098C192.22 19.0098 19.1797 192.08 19.1797 405.59C19.1797 619.09 192.22 792.16 405.67 792.16C619.12 792.16 792.16 619.08 792.16 405.59C792.16 192.09 619.12 19.0098 405.67 19.0098Z" fill="#F5F5F5"/>
<path opacity="0.0833" d="M405.39 758.8C210.2 758.8 51.9701 600.53 51.9701 405.3C51.9701 210.07 210.2 51.8002 405.39 51.8002C600.58 51.8002 758.81 210.07 758.81 405.3C758.81 600.53 600.58 758.8 405.39 758.8ZM405.39 18.4502C191.78 18.4502 18.6201 191.65 18.6201 405.3C18.6201 618.95 191.78 792.15 405.39 792.15C619 792.15 792.16 618.95 792.16 405.3C792.16 191.65 619 18.4502 405.39 18.4502Z" fill="#F0F0F0"/>
<path opacity="0.1111" d="M405.11 758.78C209.78 758.78 51.4298 600.4 51.4298 405.03C51.4298 209.66 209.78 51.2796 405.11 51.2796C600.44 51.2796 758.79 209.66 758.79 405.03C758.79 600.4 600.44 758.78 405.11 758.78ZM405.11 17.8896C191.34 17.8896 18.0498 191.22 18.0498 405.02C18.0498 618.83 191.34 792.15 405.11 792.15C618.87 792.15 792.17 618.82 792.17 405.02C792.16 191.22 618.87 17.8896 405.11 17.8896Z" fill="#EBEBEB"/>
<path opacity="0.1389" d="M404.82 758.76C209.34 758.76 50.8805 600.26 50.8805 404.75C50.8805 209.24 209.34 50.7401 404.82 50.7401C600.3 50.7401 758.76 209.23 758.76 404.75C758.76 600.27 600.3 758.76 404.82 758.76ZM404.82 17.3301C190.9 17.3301 17.4805 190.78 17.4805 404.74C17.4805 618.7 190.9 792.15 404.82 792.15C618.74 792.15 792.16 618.7 792.16 404.74C792.16 190.78 618.74 17.3301 404.82 17.3301Z" fill="#E6E6E6"/>
<path opacity="0.1667" d="M404.54 758.73C208.92 758.73 50.3399 600.12 50.3399 404.47C50.3399 208.82 208.92 50.2095 404.54 50.2095C600.16 50.2095 758.74 208.82 758.74 404.47C758.74 600.12 600.16 758.73 404.54 758.73ZM404.54 16.7695C190.46 16.7695 16.9199 190.35 16.9199 404.46C16.9199 618.58 190.46 792.15 404.54 792.15C618.62 792.15 792.16 618.57 792.16 404.46C792.16 190.35 618.62 16.7695 404.54 16.7695Z" fill="#E1E1E1"/>
<path opacity="0.1944" d="M404.26 758.71C208.5 758.71 49.8103 599.99 49.8103 404.19C49.8103 208.39 208.5 49.67 404.26 49.67C600.02 49.67 758.71 208.39 758.71 404.19C758.71 599.99 600.02 758.71 404.26 758.71ZM404.26 16.21C190.03 16.21 16.3604 189.91 16.3604 404.18C16.3604 618.45 190.03 792.15 404.26 792.15C618.49 792.15 792.16 618.45 792.16 404.18C792.16 189.92 618.49 16.21 404.26 16.21Z" fill="#DCDCDC"/>
<path opacity="0.2222" d="M403.98 758.68C208.08 758.68 49.2698 599.84 49.2698 403.91C49.2698 207.98 208.07 49.1302 403.98 49.1302C599.89 49.1302 758.69 207.97 758.69 403.9C758.69 599.83 599.88 758.68 403.98 758.68ZM403.98 15.6602C189.59 15.6602 15.7998 189.49 15.7998 403.91C15.7998 618.34 189.6 792.16 403.98 792.16C618.37 792.16 792.16 618.33 792.16 403.91C792.16 189.48 618.37 15.6602 403.98 15.6602Z" fill="#D7D7D7"/>
<path opacity="0.25" d="M403.7 758.66C207.65 758.66 48.7305 599.71 48.7305 403.63C48.7305 207.55 207.65 48.5996 403.7 48.5996C599.75 48.5996 758.67 207.55 758.67 403.63C758.67 599.71 599.74 758.66 403.7 758.66ZM403.7 15.0996C189.16 15.0996 15.2305 189.05 15.2305 403.63C15.2305 618.21 189.15 792.16 403.7 792.16C618.24 792.16 792.17 618.21 792.17 403.63C792.16 189.05 618.24 15.0996 403.7 15.0996Z" fill="#D2D2D2"/>
<path opacity="0.2778" d="M403.41 758.63C207.22 758.63 48.1802 599.56 48.1802 403.34C48.1802 207.12 207.22 48.05 403.41 48.05C599.6 48.05 758.64 207.12 758.64 403.34C758.64 599.56 599.6 758.63 403.41 758.63ZM403.41 14.54C188.71 14.54 14.6602 188.62 14.6602 403.35C14.6602 618.08 188.71 792.16 403.41 792.16C618.11 792.16 792.16 618.08 792.16 403.35C792.16 188.61 618.11 14.54 403.41 14.54Z" fill="#CDCDCD"/>
<path opacity="0.3056" d="M403.13 758.61C206.8 758.61 47.6396 599.43 47.6396 403.07C47.6396 206.71 206.8 47.5305 403.13 47.5305C599.46 47.5305 758.62 206.71 758.62 403.07C758.62 599.43 599.46 758.61 403.13 758.61ZM403.13 13.9805C188.27 13.9805 14.0996 188.18 14.0996 403.07C14.0996 617.96 188.27 792.16 403.13 792.16C617.99 792.16 792.16 617.96 792.16 403.07C792.16 188.18 617.99 13.9805 403.13 13.9805Z" fill="#C8C8C8"/>
<path opacity="0.3333" d="M402.85 758.59C206.38 758.59 47.11 599.29 47.11 402.79C47.11 206.29 206.38 46.9899 402.85 46.9899C599.32 46.9899 758.59 206.29 758.59 402.79C758.59 599.29 599.32 758.59 402.85 758.59ZM402.85 13.4199C187.84 13.4199 13.54 187.75 13.54 402.79C13.54 617.83 187.84 792.16 402.85 792.16C617.86 792.16 792.16 617.83 792.16 402.79C792.16 187.75 617.86 13.4199 402.85 13.4199Z" fill="#C3C3C3"/>
<path opacity="0.3611" d="M402.57 758.56C205.96 758.56 46.5705 599.15 46.5705 402.51C46.5705 205.87 205.96 46.4604 402.57 46.4604C599.18 46.4604 758.57 205.87 758.57 402.51C758.57 599.15 599.18 758.56 402.57 758.56ZM402.57 12.8604C187.4 12.8604 12.9805 187.31 12.9805 402.51C12.9805 617.71 187.41 792.16 402.57 792.16C617.74 792.16 792.16 617.71 792.16 402.51C792.16 187.31 617.73 12.8604 402.57 12.8604Z" fill="#BEBEBE"/>
<path opacity="0.3889" d="M402.29 758.54C205.53 758.54 46.0302 599.02 46.0302 402.23C46.0302 205.44 205.53 45.9198 402.29 45.9198C599.05 45.9198 758.55 205.44 758.55 402.23C758.55 599.02 599.04 758.54 402.29 758.54ZM402.29 12.2998C186.97 12.2998 12.4102 186.88 12.4102 402.23C12.4102 617.58 186.96 792.16 402.29 792.16C617.61 792.16 792.17 617.58 792.17 402.23C792.16 186.88 617.61 12.2998 402.29 12.2998Z" fill="#B9B9B9"/>
<path opacity="0.4167" d="M402 758.51C205.1 758.51 45.4798 598.87 45.4798 401.95C45.4798 205.03 205.1 45.3902 402 45.3902C598.9 45.3902 758.52 205.03 758.52 401.95C758.52 598.87 598.9 758.51 402 758.51ZM402 11.7402C186.52 11.7402 11.8398 186.44 11.8398 401.95C11.8398 617.46 186.52 792.16 402 792.16C617.48 792.16 792.16 617.46 792.16 401.95C792.16 186.44 617.48 11.7402 402 11.7402Z" fill="#B4B4B4"/>
<path opacity="0.4444" d="M401.72 758.49C204.68 758.49 44.9503 598.74 44.9503 401.67C44.9503 204.6 204.68 44.8497 401.72 44.8497C598.76 44.8497 758.49 204.6 758.49 401.67C758.49 598.74 598.76 758.49 401.72 758.49ZM401.72 11.1797C186.09 11.1797 11.2803 186.01 11.2803 401.67C11.2803 617.33 186.09 792.16 401.72 792.16C617.35 792.16 792.16 617.33 792.16 401.67C792.16 186.01 617.36 11.1797 401.72 11.1797Z" fill="#AFAFAF"/>
<path opacity="0.4722" d="M401.44 758.47C204.26 758.47 44.4097 598.6 44.4097 401.4C44.4097 204.2 204.26 44.3301 401.44 44.3301C598.62 44.3301 758.47 204.2 758.47 401.4C758.47 598.6 598.62 758.47 401.44 758.47ZM401.44 10.6201C185.65 10.6201 10.7197 185.57 10.7197 401.39C10.7197 617.21 185.65 792.16 401.44 792.16C617.23 792.16 792.16 617.21 792.16 401.39C792.16 185.58 617.23 10.6201 401.44 10.6201Z" fill="#AAAAAA"/>
<path opacity="0.5" d="M401.16 758.44C203.83 758.44 43.8701 598.46 43.8701 401.11C43.8701 203.76 203.83 43.7796 401.16 43.7796C598.49 43.7796 758.45 203.76 758.45 401.11C758.45 598.46 598.48 758.44 401.16 758.44ZM401.16 10.0596C185.21 10.0596 10.1602 185.14 10.1602 401.11C10.1602 617.08 185.22 792.16 401.16 792.16C617.11 792.16 792.16 617.08 792.16 401.11C792.16 185.14 617.1 10.0596 401.16 10.0596Z" fill="#A5A5A5"/>
<path opacity="0.5278" d="M400.88 758.42C203.41 758.42 43.3298 598.32 43.3298 400.84C43.3298 203.36 203.41 43.2498 400.88 43.2498C598.35 43.2498 758.43 203.35 758.43 400.83C758.43 598.31 598.34 758.42 400.88 758.42ZM400.88 9.50977C184.78 9.50977 9.58984 184.71 9.58984 400.84C9.58984 616.96 184.77 792.17 400.88 792.17C616.98 792.17 792.17 616.97 792.17 400.84C792.16 184.71 616.98 9.50977 400.88 9.50977Z" fill="#9F9F9F"/>
<path opacity="0.5556" d="M400.59 758.39C202.98 758.39 42.7895 598.18 42.7895 400.55C42.7895 202.92 202.98 42.7102 400.59 42.7102C598.2 42.7102 758.39 202.92 758.39 400.55C758.39 598.18 598.2 758.39 400.59 758.39ZM400.59 8.9502C184.33 8.9502 9.01953 184.28 9.01953 400.56C9.01953 616.84 184.33 792.17 400.59 792.17C616.85 792.17 792.16 616.84 792.16 400.56C792.16 184.27 616.85 8.9502 400.59 8.9502Z" fill="#9A9A9A"/>
<path opacity="0.5833" d="M400.31 758.37C202.56 758.37 42.25 598.05 42.25 400.27C42.25 202.49 202.56 42.1696 400.31 42.1696C598.06 42.1696 758.37 202.49 758.37 400.27C758.37 598.05 598.06 758.37 400.31 758.37ZM400.31 8.38965C183.9 8.38965 8.45996 183.84 8.45996 400.28C8.45996 616.71 183.9 792.17 400.31 792.17C616.72 792.17 792.16 616.72 792.16 400.28C792.16 183.84 616.72 8.38965 400.31 8.38965Z" fill="#959595"/>
<path opacity="0.6111" d="M400.03 758.35C202.13 758.35 41.7104 597.91 41.7104 400C41.7104 202.09 202.14 41.6501 400.03 41.6501C597.92 41.6501 758.35 202.08 758.35 399.99C758.35 597.9 597.92 758.35 400.03 758.35ZM400.03 7.83008C183.46 7.83008 7.90039 183.41 7.90039 400C7.90039 616.59 183.46 792.17 400.03 792.17C616.6 792.17 792.16 616.59 792.16 400C792.16 183.41 616.6 7.83008 400.03 7.83008Z" fill="#909090"/>
<path opacity="0.6389" d="M399.75 758.32C201.71 758.32 41.1698 597.77 41.1698 399.71C41.1698 201.65 201.71 41.0995 399.75 41.0995C597.79 41.0995 758.33 201.65 758.33 399.71C758.33 597.77 597.78 758.32 399.75 758.32ZM399.75 7.26953C183.02 7.26953 7.33984 182.97 7.33984 399.72C7.33984 616.46 183.03 792.17 399.75 792.17C616.47 792.17 792.16 616.47 792.16 399.72C792.16 182.97 616.47 7.26953 399.75 7.26953Z" fill="#8B8B8B"/>
<path opacity="0.6667" d="M399.46 758.3C201.28 758.3 40.6198 597.63 40.6198 399.44C40.6198 201.25 201.28 40.58 399.46 40.58C597.64 40.58 758.3 201.25 758.3 399.44C758.3 597.63 597.64 758.3 399.46 758.3ZM399.46 6.70996C182.58 6.70996 6.75977 182.54 6.75977 399.44C6.75977 616.34 182.58 792.17 399.46 792.17C616.34 792.17 792.16 616.34 792.16 399.44C792.16 182.54 616.35 6.70996 399.46 6.70996Z" fill="#868686"/>
<path opacity="0.6944" d="M399.18 758.27C200.86 758.27 40.0902 597.49 40.0902 399.15C40.0902 200.81 200.86 40.0404 399.18 40.0404C597.5 40.0404 758.28 200.82 758.28 399.16C758.28 597.5 597.51 758.27 399.18 758.27ZM399.18 6.15039C182.14 6.15039 6.2002 182.1 6.2002 399.16C6.2002 616.21 182.14 792.17 399.18 792.17C616.22 792.17 792.16 616.22 792.16 399.16C792.16 182.1 616.22 6.15039 399.18 6.15039Z" fill="#818181"/>
<path opacity="0.7222" d="M398.9 758.25C200.44 758.25 39.5497 597.35 39.5497 398.88C39.5497 200.41 200.44 39.5098 398.9 39.5098C597.36 39.5098 758.25 200.41 758.25 398.88C758.25 597.35 597.37 758.25 398.9 758.25ZM398.9 5.58984C181.71 5.58984 5.63965 181.67 5.63965 398.87C5.63965 616.08 181.71 792.15 398.9 792.15C616.09 792.15 792.16 616.07 792.16 398.87C792.16 181.67 616.09 5.58984 398.9 5.58984Z" fill="#7C7C7C"/>
<path opacity="0.75" d="M398.62 758.22C200.01 758.22 39.0101 597.21 39.0101 398.59C39.0101 199.97 200.01 38.9603 398.62 38.9603C597.23 38.9603 758.23 199.98 758.23 398.6C758.23 597.22 597.23 758.22 398.62 758.22ZM398.62 5.03027C181.27 5.03027 5.08008 181.24 5.08008 398.6C5.08008 615.96 181.28 792.16 398.62 792.16C615.97 792.16 792.16 615.96 792.16 398.6C792.16 181.24 615.97 5.03027 398.62 5.03027Z" fill="#777777"/>
<path opacity="0.7778" d="M398.34 758.2C199.59 758.2 38.4698 597.08 38.4698 398.32C38.4698 199.56 199.59 38.4397 398.34 38.4397C597.09 38.4397 758.21 199.57 758.21 398.32C758.21 597.07 597.09 758.2 398.34 758.2ZM398.34 4.46973C180.84 4.46973 4.50977 180.8 4.50977 398.31C4.50977 615.82 180.83 792.15 398.34 792.15C615.84 792.15 792.16 615.82 792.16 398.31C792.16 180.8 615.84 4.46973 398.34 4.46973Z" fill="#727272"/>
<path opacity="0.8056" d="M398.05 758.18C199.16 758.18 37.9304 596.94 37.9304 398.04C37.9304 199.14 199.16 37.9002 398.05 37.9002C596.94 37.9002 758.18 199.14 758.18 398.04C758.18 596.94 596.95 758.18 398.05 758.18ZM398.05 3.91016C180.39 3.91016 3.94043 180.36 3.94043 398.03C3.94043 615.7 180.39 792.15 398.05 792.15C615.71 792.15 792.16 615.7 792.16 398.03C792.16 180.36 615.71 3.91016 398.05 3.91016Z" fill="#6D6D6D"/>
<path opacity="0.8333" d="M397.77 758.15C198.74 758.15 37.3899 596.8 37.3899 397.76C37.3899 198.72 198.74 37.3596 397.77 37.3596C596.8 37.3596 758.15 198.71 758.15 397.76C758.15 596.81 596.81 758.15 397.77 758.15ZM397.77 3.34961C179.95 3.34961 3.37988 179.93 3.37988 397.75C3.37988 615.57 179.95 792.15 397.77 792.15C615.59 792.15 792.16 615.57 792.16 397.75C792.16 179.93 615.59 3.34961 397.77 3.34961Z" fill="#686868"/>
<path opacity="0.8611" d="M397.49 758.13C198.31 758.13 36.8503 596.66 36.8503 397.48C36.8503 198.3 198.31 36.8298 397.49 36.8298C596.67 36.8298 758.13 198.3 758.13 397.48C758.13 596.66 596.67 758.13 397.49 758.13ZM397.49 2.7998C179.52 2.7998 2.82031 179.5 2.82031 397.48C2.82031 615.46 179.52 792.16 397.49 792.16C615.46 792.16 792.16 615.46 792.16 397.48C792.16 179.5 615.46 2.7998 397.49 2.7998Z" fill="#636363"/>
<path opacity="0.8889" d="M397.21 758.1C197.89 758.1 36.3098 596.52 36.3098 397.19C36.3098 197.86 197.89 36.2802 397.21 36.2802C596.53 36.2802 758.11 197.86 758.11 397.19C758.11 596.52 596.53 758.1 397.21 758.1ZM397.21 2.24023C179.08 2.24023 2.25977 179.07 2.25977 397.2C2.25977 615.33 179.08 792.16 397.21 792.16C615.34 792.16 792.16 615.33 792.16 397.2C792.16 179.07 615.34 2.24023 397.21 2.24023Z" fill="#5E5E5E"/>
<path opacity="0.9167" d="M396.93 758.08C197.47 758.08 35.7704 596.38 35.7704 396.92C35.7704 197.46 197.46 35.7597 396.93 35.7597C596.4 35.7597 758.08 197.45 758.08 396.92C758.08 596.39 596.39 758.08 396.93 758.08ZM396.93 1.67969C178.65 1.67969 1.69043 178.64 1.69043 396.92C1.69043 615.2 178.64 792.16 396.93 792.16C615.22 792.16 792.16 615.2 792.16 396.92C792.16 178.64 615.21 1.67969 396.93 1.67969Z" fill="#595959"/>
<path opacity="0.9444" d="M396.64 758.06C197.04 758.06 35.2301 596.25 35.2301 396.64C35.2301 197.03 197.04 35.2201 396.64 35.2201C596.24 35.2201 758.05 197.03 758.05 396.64C758.05 596.25 596.25 758.06 396.64 758.06ZM396.64 1.12012C178.2 1.12012 1.12012 178.2 1.12012 396.64C1.12012 615.08 178.2 792.16 396.64 792.16C615.08 792.16 792.16 615.08 792.16 396.64C792.16 178.2 615.08 1.12012 396.64 1.12012Z" fill="#545454"/>
<path opacity="0.9722" d="M396.36 758.03C196.61 758.03 34.6896 596.1 34.6896 396.36C34.6896 196.62 196.62 34.6896 396.36 34.6896C596.1 34.6896 758.03 196.62 758.03 396.36C758.03 596.1 596.11 758.03 396.36 758.03ZM396.36 0.55957C177.77 0.55957 0.55957 177.77 0.55957 396.36C0.55957 614.95 177.77 792.16 396.36 792.16C614.95 792.16 792.16 614.95 792.16 396.36C792.16 177.77 614.96 0.55957 396.36 0.55957Z" fill="#4F4F4F"/>
<path d="M396.08 758.01C196.19 758.01 34.15 595.97 34.15 396.08C34.15 196.19 196.19 34.15 396.08 34.15C595.97 34.15 758.01 196.19 758.01 396.08C758.01 595.97 595.97 758.01 396.08 758.01ZM396.08 0C177.33 0 0 177.33 0 396.08C0 614.83 177.33 792.16 396.08 792.16C614.83 792.16 792.16 614.83 792.16 396.08C792.16 177.33 614.83 0 396.08 0Z" fill="#4A4A4A"/>
<path d="M396.08 0C177.33 0 0 177.33 0 396.08C0 614.83 177.33 792.16 396.08 792.16C614.83 792.16 792.16 614.83 792.16 396.08C792.16 177.33 614.83 0 396.08 0ZM396.08 758.01C196.19 758.01 34.15 595.97 34.15 396.08C34.15 196.19 196.19 34.15 396.08 34.15C595.97 34.15 758.01 196.19 758.01 396.08C758.01 595.97 595.97 758.01 396.08 758.01Z" fill="#E8E5E3"/>
</g>
<defs>
<clipPath id="clip0">
<rect width="792.17" height="792.17" fill="white"/>
</clipPath>
</defs>
</svg>
